<svg
  width="144"
  height="160"
  viewBox="0 0 144 160"
  fill="none"
  xmlns="http://www.w3.org/2000/svg"
>
<path d="M144 47.5L123.75 60.9234V34.0766L144 47.5Z" fill="#F54B69" />
<path
    fill-rule="evenodd"
    clip-rule="evenodd"
    d="M52 121.5C52 142.763 69.237 160 90.5 160C111.763 160 129 142.763 129 121.5V38.5C129 17.237 111.763 0 90.5 0C69.237 0 52 17.237 52 38.5V121.5Z"
    fill="#E50808"
  />
<path
    d="M0 119C0 96.3563 18.3563 78 41 78H76C98.6437 78 117 96.3563 117 119V119C117 141.644 98.6437 160 76 160H41C18.3563 160 0 141.644 0 119V119Z"
    fill="#F72942"
  />
</svg>
