<svg width="737" height="145" viewBox="0 0 737 145" fill="none" xmlns="http://www.w3.org/2000/svg">
<path d="M76.4 144.8C65.3333 144.8 55.1333 143.067 45.8 139.6C36.6 136 28.5333 130.933 21.6 124.4C14.8 117.867 9.46667 110.2 5.6 101.4C1.86667 92.6 0 82.9333 0 72.4C0 61.8667 1.86667 52.2 5.6 43.4C9.46667 34.6 14.8667 26.9333 21.8 20.4C28.7333 13.8667 36.8667 8.86666 46.2 5.39999C55.5333 1.8 65.8 0 77 0C89.4 0 100.533 2.06666 110.4 6.19999C120.4 10.3333 128.8 16.3333 135.6 24.2L114.8 43.4C109.733 38.0667 104.2 34.1333 98.2 31.6C92.2 28.9333 85.6667 27.6 78.6 27.6C71.8 27.6 65.6 28.6667 60 30.8C54.4 32.9333 49.5333 36 45.4 40C41.4 44 38.2667 48.7333 36 54.2C33.8667 59.6667 32.8 65.7333 32.8 72.4C32.8 78.9333 33.8667 84.9333 36 90.4C38.2667 95.8667 41.4 100.667 45.4 104.8C49.5333 108.8 54.3333 111.867 59.8 114C65.4 116.133 71.5333 117.2 78.2 117.2C84.6 117.2 90.8 116.2 96.8 114.2C102.933 112.067 108.867 108.533 114.6 103.6L133 127C125.4 132.733 116.533 137.133 106.4 140.2C96.4 143.267 86.4 144.8 76.4 144.8ZM103.4 122.8V70.2H133V127L103.4 122.8Z" fill="#C00000"/>
<path d="M231.097 144.8C220.03 144.8 209.764 143 200.297 139.4C190.964 135.8 182.83 130.733 175.897 124.2C169.097 117.667 163.764 110 159.897 101.2C156.164 92.4 154.297 82.8 154.297 72.4C154.297 62 156.164 52.4 159.897 43.6C163.764 34.8 169.164 27.1333 176.097 20.6C183.03 14.0667 191.164 8.99999 200.497 5.39999C209.83 1.8 219.964 0 230.897 0C241.964 0 252.097 1.8 261.297 5.39999C270.63 8.99999 278.697 14.0667 285.497 20.6C292.43 27.1333 297.83 34.8 301.697 43.6C305.564 52.2667 307.497 61.8667 307.497 72.4C307.497 82.8 305.564 92.4667 301.697 101.4C297.83 110.2 292.43 117.867 285.497 124.4C278.697 130.8 270.63 135.8 261.297 139.4C252.097 143 242.03 144.8 231.097 144.8ZM230.897 117.2C237.164 117.2 242.897 116.133 248.097 114C253.43 111.867 258.097 108.8 262.097 104.8C266.097 100.8 269.164 96.0667 271.297 90.6C273.564 85.1333 274.697 79.0667 274.697 72.4C274.697 65.7333 273.564 59.6667 271.297 54.2C269.164 48.7333 266.097 44 262.097 40C258.23 36 253.63 32.9333 248.297 30.8C242.964 28.6667 237.164 27.6 230.897 27.6C224.63 27.6 218.83 28.6667 213.497 30.8C208.297 32.9333 203.697 36 199.697 40C195.697 44 192.564 48.7333 190.297 54.2C188.164 59.6667 187.097 65.7333 187.097 72.4C187.097 78.9333 188.164 85 190.297 90.6C192.564 96.0667 195.63 100.8 199.497 104.8C203.497 108.8 208.164 111.867 213.497 114C218.83 116.133 224.63 117.2 230.897 117.2Z" fill="#C00000"/>
<path d="M399.847 144.8C388.78 144.8 378.514 143 369.047 139.4C359.714 135.8 351.58 130.733 344.647 124.2C337.847 117.667 332.514 110 328.647 101.2C324.914 92.4 323.047 82.8 323.047 72.4C323.047 62 324.914 52.4 328.647 43.6C332.514 34.8 337.914 27.1333 344.847 20.6C351.78 14.0667 359.914 8.99999 369.247 5.39999C378.58 1.8 388.714 0 399.647 0C410.714 0 420.847 1.8 430.047 5.39999C439.38 8.99999 447.447 14.0667 454.247 20.6C461.18 27.1333 466.58 34.8 470.447 43.6C474.314 52.2667 476.247 61.8667 476.247 72.4C476.247 82.8 474.314 92.4667 470.447 101.4C466.58 110.2 461.18 117.867 454.247 124.4C447.447 130.8 439.38 135.8 430.047 139.4C420.847 143 410.78 144.8 399.847 144.8ZM399.647 117.2C405.914 117.2 411.647 116.133 416.847 114C422.18 111.867 426.847 108.8 430.847 104.8C434.847 100.8 437.914 96.0667 440.047 90.6C442.314 85.1333 443.447 79.0667 443.447 72.4C443.447 65.7333 442.314 59.6667 440.047 54.2C437.914 48.7333 434.847 44 430.847 40C426.98 36 422.38 32.9333 417.047 30.8C411.714 28.6667 405.914 27.6 399.647 27.6C393.38 27.6 387.58 28.6667 382.247 30.8C377.047 32.9333 372.447 36 368.447 40C364.447 44 361.314 48.7333 359.047 54.2C356.914 59.6667 355.847 65.7333 355.847 72.4C355.847 78.9333 356.914 85 359.047 90.6C361.314 96.0667 364.38 100.8 368.247 104.8C372.247 108.8 376.914 111.867 382.247 114C387.58 116.133 393.38 117.2 399.647 117.2Z" fill="#C00000"/>
<path d="M546.597 144.8C535.397 144.8 524.664 143.333 514.397 140.4C504.13 137.333 495.864 133.4 489.597 128.6L500.597 104.2C506.597 108.467 513.664 112 521.797 114.8C530.064 117.467 538.397 118.8 546.797 118.8C553.197 118.8 558.33 118.2 562.197 117C566.197 115.667 569.13 113.867 570.997 111.6C572.864 109.333 573.797 106.733 573.797 103.8C573.797 100.067 572.33 97.1333 569.397 95C566.464 92.7333 562.597 90.9333 557.797 89.6C552.997 88.1333 547.664 86.8 541.797 85.6C536.064 84.2667 530.264 82.6667 524.397 80.8C518.664 78.9333 513.397 76.5333 508.597 73.6C503.797 70.6667 499.864 66.8 496.797 62C493.864 57.2 492.397 51.0667 492.397 43.6C492.397 35.6 494.53 28.3333 498.797 21.8C503.197 15.1333 509.73 9.86666 518.397 5.99999C527.197 2 538.197 0 551.397 0C560.197 0 568.864 1.06666 577.397 3.19999C585.93 5.19999 593.464 8.26666 599.997 12.4L589.997 37C583.464 33.2667 576.93 30.5333 570.397 28.8C563.864 26.9333 557.464 26 551.197 26C544.93 26 539.797 26.7333 535.797 28.2C531.797 29.6667 528.93 31.6 527.197 34C525.464 36.2667 524.597 38.9333 524.597 42C524.597 45.6 526.064 48.5333 528.997 50.8C531.93 52.9333 535.797 54.6667 540.597 56C545.397 57.3333 550.664 58.6667 556.397 60C562.264 61.3333 568.064 62.8667 573.797 64.6C579.664 66.3333 584.997 68.6667 589.797 71.6C594.597 74.5333 598.464 78.4 601.397 83.2C604.464 88 605.997 94.0667 605.997 101.4C605.997 109.267 603.797 116.467 599.397 123C594.997 129.533 588.397 134.8 579.597 138.8C570.93 142.8 559.93 144.8 546.597 144.8Z" fill="#C00000"/>
<path d="M657.936 58.8H725.336V84H657.936V58.8ZM660.336 116.4H736.536V142.4H628.136V2.39999H733.936V28.4H660.336V116.4Z" fill="#C00000"/>
<path fill-rule="evenodd" clip-rule="evenodd" d="M224.098 19.6716C212.541 21.4704 202.501 26.5012 194.332 34.5849C180.302 48.4697 175.401 68.8914 181.597 87.6473C184.148 95.3676 187.844 101.396 193.717 107.416C200.178 114.038 206.839 118.186 215.382 120.906C221.457 122.841 225.231 123.416 231.735 123.4C245.371 123.365 257.543 118.536 267.509 109.207C275.5 101.728 280.51 92.9561 282.938 82.1942C284.183 76.6719 284.307 67.1448 283.204 61.6521C281.074 51.0422 276.059 41.8297 268.249 34.1819C261.7 27.7684 253.452 23.1614 244.388 20.8547C240.161 19.7786 238.389 19.5566 233.01 19.4282C229.505 19.3444 225.495 19.4539 224.098 19.6716ZM240.069 24.4817C255.317 27.1295 268.25 37.0799 275.112 51.4448C281.361 64.5235 280.903 80.8254 273.923 93.7761C270.418 100.281 264.403 106.879 258.359 110.849C254.755 113.216 254.976 113.329 253.393 108.306C251.821 103.318 250.037 94.1631 248.1 81.1413C245.23 61.8492 243.783 57.0378 239.612 52.9012C238.427 51.7266 236.361 50.2563 235.021 49.6334C232.895 48.6454 232.054 48.5013 228.409 48.5013C224.235 48.5013 224.232 48.5022 223.002 49.8667C221.422 51.62 221.076 53.0591 221.687 55.3262C222.544 58.5026 222.257 60.0078 220.409 62.0235C219.597 62.9101 219.598 62.9122 222.329 64.676C225.5 66.7249 229.194 70.4252 230.776 73.1392C232.129 75.4602 233.085 78.7756 233.448 82.4047C233.809 86.0095 232.907 103.572 232.136 107.954C231.543 111.328 229.753 117.458 229.045 118.539C228.754 118.983 227.887 118.966 224.353 118.442C213.55 116.84 204.564 112.173 196.756 104.109C191.03 98.1953 187.045 91.2099 184.904 83.3338C183.895 79.6192 183.794 78.5351 183.794 71.4546C183.794 64.3399 183.892 63.2971 184.929 59.4515C187.141 51.2456 192.544 42.1447 198.387 36.7808C205.187 30.5384 213.567 26.2666 222.443 24.5183C226.406 23.7375 235.672 23.7181 240.069 24.4817ZM201.627 49.8966C201.287 50.442 202.831 51.7118 209.805 56.6213C214.882 60.1961 215.615 60.5857 216.606 60.2403C218.406 59.6128 218.86 58.1404 218.074 55.4808C217.543 53.6871 217.504 52.9062 217.882 51.6575C218.525 49.5264 218.531 49.5374 217.031 50.0558C215.749 50.4989 207.043 50.2811 203.433 49.7155C202.579 49.5816 201.773 49.6625 201.627 49.8966ZM233.802 53.3754C234.417 53.8551 234.921 54.4565 234.921 54.7109C234.921 55.5541 233.53 56.714 232.519 56.714C231.517 56.714 229.824 55.3915 229.824 54.6081C229.824 53.9874 231.431 52.5023 232.103 52.5023C232.422 52.5023 233.186 52.8953 233.802 53.3754Z" fill="#C00000"/>
<path d="M76.4 144.8C65.3333 144.8 55.1333 143.067 45.8 139.6C36.6 136 28.5333 130.933 21.6 124.4C14.8 117.867 9.46667 110.2 5.6 101.4C1.86667 92.6 0 82.9333 0 72.4C0 61.8667 1.86667 52.2 5.6 43.4C9.46667 34.6 14.8667 26.9333 21.8 20.4C28.7333 13.8667 36.8667 8.86666 46.2 5.39999C55.5333 1.8 65.8 0 77 0C89.4 0 100.533 2.06666 110.4 6.19999C120.4 10.3333 128.8 16.3333 135.6 24.2L114.8 43.4C109.733 38.0667 104.2 34.1333 98.2 31.6C92.2 28.9333 85.6667 27.6 78.6 27.6C71.8 27.6 65.6 28.6667 60 30.8C54.4 32.9333 49.5333 36 45.4 40C41.4 44 38.2667 48.7333 36 54.2C33.8667 59.6667 32.8 65.7333 32.8 72.4C32.8 78.9333 33.8667 84.9333 36 90.4C38.2667 95.8667 41.4 100.667 45.4 104.8C49.5333 108.8 54.3333 111.867 59.8 114C65.4 116.133 71.5333 117.2 78.2 117.2C84.6 117.2 90.8 116.2 96.8 114.2C102.933 112.067 108.867 108.533 114.6 103.6L133 127C125.4 132.733 116.533 137.133 106.4 140.2C96.4 143.267 86.4 144.8 76.4 144.8ZM103.4 122.8V70.2H133V127L103.4 122.8Z" fill="#C00000"/>
<path d="M231.097 144.8C220.03 144.8 209.764 143 200.297 139.4C190.964 135.8 182.83 130.733 175.897 124.2C169.097 117.667 163.764 110 159.897 101.2C156.164 92.4 154.297 82.8 154.297 72.4C154.297 62 156.164 52.4 159.897 43.6C163.764 34.8 169.164 27.1333 176.097 20.6C183.03 14.0667 191.164 8.99999 200.497 5.39999C209.83 1.8 219.964 0 230.897 0C241.964 0 252.097 1.8 261.297 5.39999C270.63 8.99999 278.697 14.0667 285.497 20.6C292.43 27.1333 297.83 34.8 301.697 43.6C305.564 52.2667 307.497 61.8667 307.497 72.4C307.497 82.8 305.564 92.4667 301.697 101.4C297.83 110.2 292.43 117.867 285.497 124.4C278.697 130.8 270.63 135.8 261.297 139.4C252.097 143 242.03 144.8 231.097 144.8ZM230.897 117.2C237.164 117.2 242.897 116.133 248.097 114C253.43 111.867 258.097 108.8 262.097 104.8C266.097 100.8 269.164 96.0667 271.297 90.6C273.564 85.1333 274.697 79.0667 274.697 72.4C274.697 65.7333 273.564 59.6667 271.297 54.2C269.164 48.7333 266.097 44 262.097 40C258.23 36 253.63 32.9333 248.297 30.8C242.964 28.6667 237.164 27.6 230.897 27.6C224.63 27.6 218.83 28.6667 213.497 30.8C208.297 32.9333 203.697 36 199.697 40C195.697 44 192.564 48.7333 190.297 54.2C188.164 59.6667 187.097 65.7333 187.097 72.4C187.097 78.9333 188.164 85 190.297 90.6C192.564 96.0667 195.63 100.8 199.497 104.8C203.497 108.8 208.164 111.867 213.497 114C218.83 116.133 224.63 117.2 230.897 117.2Z" fill="#C00000"/>
<path d="M399.847 144.8C388.78 144.8 378.514 143 369.047 139.4C359.714 135.8 351.58 130.733 344.647 124.2C337.847 117.667 332.514 110 328.647 101.2C324.914 92.4 323.047 82.8 323.047 72.4C323.047 62 324.914 52.4 328.647 43.6C332.514 34.8 337.914 27.1333 344.847 20.6C351.78 14.0667 359.914 8.99999 369.247 5.39999C378.58 1.8 388.714 0 399.647 0C410.714 0 420.847 1.8 430.047 5.39999C439.38 8.99999 447.447 14.0667 454.247 20.6C461.18 27.1333 466.58 34.8 470.447 43.6C474.314 52.2667 476.247 61.8667 476.247 72.4C476.247 82.8 474.314 92.4667 470.447 101.4C466.58 110.2 461.18 117.867 454.247 124.4C447.447 130.8 439.38 135.8 430.047 139.4C420.847 143 410.78 144.8 399.847 144.8ZM399.647 117.2C405.914 117.2 411.647 116.133 416.847 114C422.18 111.867 426.847 108.8 430.847 104.8C434.847 100.8 437.914 96.0667 440.047 90.6C442.314 85.1333 443.447 79.0667 443.447 72.4C443.447 65.7333 442.314 59.6667 440.047 54.2C437.914 48.7333 434.847 44 430.847 40C426.98 36 422.38 32.9333 417.047 30.8C411.714 28.6667 405.914 27.6 399.647 27.6C393.38 27.6 387.58 28.6667 382.247 30.8C377.047 32.9333 372.447 36 368.447 40C364.447 44 361.314 48.7333 359.047 54.2C356.914 59.6667 355.847 65.7333 355.847 72.4C355.847 78.9333 356.914 85 359.047 90.6C361.314 96.0667 364.38 100.8 368.247 104.8C372.247 108.8 376.914 111.867 382.247 114C387.58 116.133 393.38 117.2 399.647 117.2Z" fill="#C00000"/>
<path d="M546.597 144.8C535.397 144.8 524.664 143.333 514.397 140.4C504.13 137.333 495.864 133.4 489.597 128.6L500.597 104.2C506.597 108.467 513.664 112 521.797 114.8C530.064 117.467 538.397 118.8 546.797 118.8C553.197 118.8 558.33 118.2 562.197 117C566.197 115.667 569.13 113.867 570.997 111.6C572.864 109.333 573.797 106.733 573.797 103.8C573.797 100.067 572.33 97.1333 569.397 95C566.464 92.7333 562.597 90.9333 557.797 89.6C552.997 88.1333 547.664 86.8 541.797 85.6C536.064 84.2667 530.264 82.6667 524.397 80.8C518.664 78.9333 513.397 76.5333 508.597 73.6C503.797 70.6667 499.864 66.8 496.797 62C493.864 57.2 492.397 51.0667 492.397 43.6C492.397 35.6 494.53 28.3333 498.797 21.8C503.197 15.1333 509.73 9.86666 518.397 5.99999C527.197 2 538.197 0 551.397 0C560.197 0 568.864 1.06666 577.397 3.19999C585.93 5.19999 593.464 8.26666 599.997 12.4L589.997 37C583.464 33.2667 576.93 30.5333 570.397 28.8C563.864 26.9333 557.464 26 551.197 26C544.93 26 539.797 26.7333 535.797 28.2C531.797 29.6667 528.93 31.6 527.197 34C525.464 36.2667 524.597 38.9333 524.597 42C524.597 45.6 526.064 48.5333 528.997 50.8C531.93 52.9333 535.797 54.6667 540.597 56C545.397 57.3333 550.664 58.6667 556.397 60C562.264 61.3333 568.064 62.8667 573.797 64.6C579.664 66.3333 584.997 68.6667 589.797 71.6C594.597 74.5333 598.464 78.4 601.397 83.2C604.464 88 605.997 94.0667 605.997 101.4C605.997 109.267 603.797 116.467 599.397 123C594.997 129.533 588.397 134.8 579.597 138.8C570.93 142.8 559.93 144.8 546.597 144.8Z" fill="#C00000"/>
<path d="M657.936 58.8H725.336V84H657.936V58.8ZM660.336 116.4H736.536V142.4H628.136V2.39999H733.936V28.4H660.336V116.4Z" fill="#C00000"/>
</svg>
