<svg
  width="623"
  height="151"
  viewBox="0 0 623 151"
  fill="none"
  xmlns="http://www.w3.org/2000/svg"
>
<path
    d="M59 150.4C48.8667 150.4 39.0667 149.133 29.6 146.6C20.2667 144.2 12.4667 140.533 6.2 135.6L18.6 113.2C23.1333 116.933 28.8667 119.867 35.8 122C42.8667 124.267 49.8 125.4 56.6 125.4C67.6667 125.4 75.6667 122.933 80.6 118C85.6667 113.067 88.2 105.733 88.2 96V79.8L90.2 52.8L89.8 25.6V2.39999H119.4V92C119.4 112 114.2 126.733 103.8 136.2C93.4 145.667 78.4667 150.4 59 150.4ZM54.2 104.8C44.2 104.8 35.1333 102.667 27 98.4C19 94 12.5333 87.9333 7.6 80.2C2.8 72.3333 0.4 63.2 0.4 52.8C0.4 42.2667 2.8 33.1333 7.6 25.4C12.5333 17.5333 19 11.4667 27 7.2C35.1333 2.93333 44.2 0.799999 54.2 0.799999C63.2667 0.799999 71.2667 2.66667 78.2 6.4C85.1333 10 90.5333 15.6667 94.4 23.4C98.2667 31 100.2 40.8 100.2 52.8C100.2 64.6667 98.2667 74.4667 94.4 82.2C90.5333 89.8 85.1333 95.4667 78.2 99.2C71.2667 102.933 63.2667 104.8 54.2 104.8ZM60.4 79.2C65.8667 79.2 70.7333 78.1333 75 76C79.2667 73.7333 82.6 70.6 85 66.6C87.4 62.6 88.6 58 88.6 52.8C88.6 47.4667 87.4 42.8667 85 39C82.6 35 79.2667 31.9333 75 29.8C70.7333 27.5333 65.8667 26.4 60.4 26.4C54.9333 26.4 50.0667 27.5333 45.8 29.8C41.5333 31.9333 38.1333 35 35.6 39C33.2 42.8667 32 47.4667 32 52.8C32 58 33.2 62.6 35.6 66.6C38.1333 70.6 41.5333 73.7333 45.8 76C50.0667 78.1333 54.9333 79.2 60.4 79.2ZM199.639 111.6C188.172 111.6 177.972 109.2 169.039 104.4C160.239 99.6 153.239 93.0667 148.039 84.8C142.972 76.4 140.439 66.8667 140.439 56.2C140.439 45.4 142.972 35.8667 148.039 27.6C153.239 19.2 160.239 12.6667 169.039 7.99999C177.972 3.2 188.172 0.799999 199.639 0.799999C210.972 0.799999 221.106 3.2 230.039 7.99999C238.972 12.6667 245.972 19.1333 251.039 27.4C256.106 35.6667 258.639 45.2667 258.639 56.2C258.639 66.8667 256.106 76.4 251.039 84.8C245.972 93.0667 238.972 99.6 230.039 104.4C221.106 109.2 210.972 111.6 199.639 111.6ZM199.639 86C204.839 86 209.506 84.8 213.639 82.4C217.772 80 221.039 76.6 223.439 72.2C225.839 67.6667 227.039 62.3333 227.039 56.2C227.039 49.9333 225.839 44.6 223.439 40.2C221.039 35.8 217.772 32.4 213.639 30C209.506 27.6 204.839 26.4 199.639 26.4C194.439 26.4 189.772 27.6 185.639 30C181.506 32.4 178.172 35.8 175.639 40.2C173.239 44.6 172.039 49.9333 172.039 56.2C172.039 62.3333 173.239 67.6667 175.639 72.2C178.172 76.6 181.506 80 185.639 82.4C189.772 84.8 194.439 86 199.639 86ZM330.694 111.6C319.227 111.6 309.027 109.2 300.094 104.4C291.294 99.6 284.294 93.0667 279.094 84.8C274.027 76.4 271.494 66.8667 271.494 56.2C271.494 45.4 274.027 35.8667 279.094 27.6C284.294 19.2 291.294 12.6667 300.094 7.99999C309.027 3.2 319.227 0.799999 330.694 0.799999C342.027 0.799999 352.16 3.2 361.094 7.99999C370.027 12.6667 377.027 19.1333 382.094 27.4C387.16 35.6667 389.694 45.2667 389.694 56.2C389.694 66.8667 387.16 76.4 382.094 84.8C377.027 93.0667 370.027 99.6 361.094 104.4C352.16 109.2 342.027 111.6 330.694 111.6ZM330.694 86C335.894 86 340.56 84.8 344.694 82.4C348.827 80 352.094 76.6 354.494 72.2C356.894 67.6667 358.094 62.3333 358.094 56.2C358.094 49.9333 356.894 44.6 354.494 40.2C352.094 35.8 348.827 32.4 344.694 30C340.56 27.6 335.894 26.4 330.694 26.4C325.494 26.4 320.827 27.6 316.694 30C312.56 32.4 309.227 35.8 306.694 40.2C304.294 44.6 303.094 49.9333 303.094 56.2C303.094 62.3333 304.294 67.6667 306.694 72.2C309.227 76.6 312.56 80 316.694 82.4C320.827 84.8 325.494 86 330.694 86ZM446.748 111.6C437.548 111.6 428.682 110.533 420.148 108.4C411.748 106.133 405.082 103.333 400.148 100L410.548 77.6C415.482 80.6667 421.282 83.2 427.948 85.2C434.748 87.0667 441.415 88 447.948 88C455.148 88 460.215 87.1333 463.148 85.4C466.215 83.6667 467.748 81.2667 467.748 78.2C467.748 75.6667 466.548 73.8 464.148 72.6C461.882 71.2667 458.815 70.2667 454.948 69.6C451.082 68.9333 446.815 68.2667 442.148 67.6C437.615 66.9333 433.015 66.0667 428.348 65C423.682 63.8 419.415 62.0667 415.548 59.8C411.682 57.5333 408.548 54.4667 406.148 50.6C403.882 46.7333 402.748 41.7333 402.748 35.6C402.748 28.8 404.682 22.8 408.548 17.6C412.548 12.4 418.282 8.33333 425.748 5.4C433.215 2.33333 442.148 0.799999 452.548 0.799999C459.882 0.799999 467.348 1.6 474.948 3.19999C482.548 4.8 488.882 7.13333 493.948 10.2L483.548 32.4C478.348 29.3333 473.082 27.2667 467.748 26.2C462.548 25 457.482 24.4 452.548 24.4C445.615 24.4 440.548 25.3333 437.348 27.2C434.148 29.0667 432.548 31.4667 432.548 34.4C432.548 37.0667 433.682 39.0667 435.948 40.4C438.348 41.7333 441.482 42.8 445.348 43.6C449.215 44.4 453.415 45.1333 457.948 45.8C462.615 46.3333 467.282 47.2 471.948 48.4C476.615 49.6 480.815 51.3333 484.548 53.6C488.415 55.7333 491.548 58.7333 493.948 62.6C496.348 66.3333 497.548 71.2667 497.548 77.4C497.548 84.0667 495.548 90 491.548 95.2C487.548 100.267 481.748 104.267 474.148 107.2C466.682 110.133 457.548 111.6 446.748 111.6ZM570.198 111.6C557.932 111.6 547.132 109.2 537.798 104.4C528.598 99.6 521.465 93.0667 516.398 84.8C511.332 76.4 508.798 66.8667 508.798 56.2C508.798 45.4 511.265 35.8667 516.198 27.6C521.265 19.2 528.132 12.6667 536.798 7.99999C545.465 3.2 555.265 0.799999 566.198 0.799999C576.732 0.799999 586.198 3.06666 594.598 7.6C603.132 12 609.865 18.4 614.798 26.8C619.732 35.0667 622.198 45 622.198 56.6C622.198 57.8 622.132 59.2 621.998 60.8C621.865 62.2667 621.732 63.6667 621.598 65H534.198V46.8H605.198L593.198 52.2C593.198 46.6 592.065 41.7333 589.798 37.6C587.532 33.4667 584.398 30.2667 580.398 28C576.398 25.6 571.732 24.4 566.398 24.4C561.065 24.4 556.332 25.6 552.198 28C548.198 30.2667 545.065 33.5333 542.798 37.8C540.532 41.9333 539.398 46.8667 539.398 52.6V57.4C539.398 63.2667 540.665 68.4667 543.198 73C545.865 77.4 549.532 80.8 554.198 83.2C558.998 85.4667 564.598 86.6 570.998 86.6C576.732 86.6 581.732 85.7333 585.998 84C590.398 82.2667 594.398 79.6667 597.998 76.2L614.598 94.2C609.665 99.8 603.465 104.133 595.998 107.2C588.532 110.133 579.932 111.6 570.198 111.6Z"
    fill="url(#paint0_linear_31_77)"
  />
<defs>
<linearGradient
      id="paint0_linear_31_77"
      x1="629"
      y1="194"
      x2="161"
      y2="3.99996"
      gradientUnits="userSpaceOnUse"
    >
<stop stop-color="#D00A0A" />
<stop offset="1" stop-color="#F54B69" />
</linearGradient>
</defs>
</svg>
