<svg
  width="763"
  height="244"
  viewBox="0 0 763 244"
  fill="none"
  xmlns="http://www.w3.org/2000/svg"
>
<path
    d="M447.497 78.7262L531.066 209.937H363.928L447.497 78.7262Z"
    fill="#088432"
  />
<path
    d="M447.497 30.2181L509.926 149.5H385.068L447.497 30.2181Z"
    fill="#32BC61"
  />
<path d="M447.879 0L487.516 87.076H408.241L447.879 0Z" fill="#5ECE84" />
<rect x="433.385" y="209.937" width="28.2245" height="78.7262" fill="#491F1F" />
<path d="M84.571 81.8182L169.142 218.182H0L84.571 81.8182Z" fill="#088432" />
<path
    d="M84.571 31.405L147.748 155.372H21.3935L84.571 31.405Z"
    fill="#32BC61"
  />
<path d="M84.9569 0L125.07 90.4959H44.8442L84.9569 0Z" fill="#5ECE84" />
<path d="M70.2895 218.182H98.8524V300H70.2895V218.182Z" fill="#491F1F" />
<path
    d="M221.552 86.9267L300 212.167H143.104L221.552 86.9267Z"
    fill="#088432"
  />
<path
    d="M221.552 40.6257L280.155 154.481H162.948L221.552 40.6257Z"
    fill="#32BC61"
  />
<path
    d="M221.91 11.7825L259.118 94.8965H184.701L221.91 11.7825Z"
    fill="#5ECE84"
  />
<path d="M208.304 212.167H234.799V287.311H208.304V212.167Z" fill="#491F1F" />
<path d="M544 94.7262L627.138 225.937H460.862L544 94.7262Z" fill="#088432" />
<path d="M544 46.2181L606.107 165.5H481.893L544 46.2181Z" fill="#32BC61" />
<path d="M544.379 16L583.813 103.076H504.946L544.379 16Z" fill="#5ECE84" />
<rect x="529.96" y="225.937" width="28.0791" height="78.7262" fill="#491F1F" />
<path
    d="M336.497 89.7262L420.066 220.937H252.928L336.497 89.7262Z"
    fill="#088432"
  />
<path
    d="M336.497 41.2181L398.926 160.5H274.068L336.497 41.2181Z"
    fill="#32BC61"
  />
<path d="M336.879 11L376.516 98.076H297.241L336.879 11Z" fill="#5ECE84" />
<rect x="322.385" y="220.937" width="28.2245" height="78.7262" fill="#491F1F" />
<path
    d="M666.497 89.7262L750.066 220.937H582.928L666.497 89.7262Z"
    fill="#088432"
  />
<path
    d="M666.497 41.2181L728.926 160.5H604.068L666.497 41.2181Z"
    fill="#32BC61"
  />
<path d="M666.879 11L706.516 98.076H627.241L666.879 11Z" fill="#5ECE84" />
<rect x="652.385" y="220.937" width="28.2245" height="78.7262" fill="#491F1F" />
</svg>
